<svg width="1107pt" height="476pt"
 viewBox="0.00 0.00 1106.84 476.00" xmlns="http://www.w3.org/2000/svg" xmlns:xlink="http://www.w3.org/1999/xlink">
<g id="graph0" class="graph" transform="scale(1 1) rotate(0) translate(4 472)">
<title>BehaviourTree</title>
<polygon fill="#ffffff" stroke="transparent" points="-4,4 -4,-472 1102.8437,-472 1102.8437,4 -4,4"/>
<!-- selector78 -->
<g id="node1" class="node">
<title>selector78</title>
<polygon fill="#f3b61f" stroke="#000000" points="444.3437,-468 367.3437,-468 367.3437,-432 444.3437,-432 444.3437,-468"/>
<text text-anchor="middle" x="405.8437" y="-446.3" font-family="Times,serif" font-size="14.00" fill="#000000">Selector</text>
</g>
<!-- sequence79 -->
<g id="node2" class="node">
<title>sequence79</title>
<polygon fill="#e26d5a" stroke="#000000" points="247.8437,-396 161.8437,-396 161.8437,-360 247.8437,-360 247.8437,-396"/>
<text text-anchor="middle" x="204.8437" y="-374.3" font-family="Times,serif" font-size="14.00" fill="#000000">Sequence</text>
</g>
<!-- selector78&#45;&gt;sequence79 -->
<g id="edge1" class="edge">
<title>selector78&#45;&gt;sequence79</title>
<path fill="none" stroke="#000000" d="M367.0889,-436.1177C335.9107,-424.9494 291.788,-409.1442 257.4242,-396.8348"/>
<polygon fill="#000000" stroke="#000000" points="258.6041,-393.5397 248.0095,-393.4624 256.2435,-400.1297 258.6041,-393.5397"/>
</g>
<!-- sequence83 -->
<g id="node6" class="node">
<title>sequence83</title>
<polygon fill="#e26d5a" stroke="#000000" points="448.8437,-396 362.8437,-396 362.8437,-360 448.8437,-360 448.8437,-396"/>
<text text-anchor="middle" x="405.8437" y="-374.3" font-family="Times,serif" font-size="14.00" fill="#000000">Sequence</text>
</g>
<!-- selector78&#45;&gt;sequence83 -->
<g id="edge2" class="edge">
<title>selector78&#45;&gt;sequence83</title>
<path fill="none" stroke="#000000" d="M405.8437,-431.8314C405.8437,-424.131 405.8437,-414.9743 405.8437,-406.4166"/>
<polygon fill="#000000" stroke="#000000" points="409.3438,-406.4132 405.8437,-396.4133 402.3438,-406.4133 409.3438,-406.4132"/>
</g>
<!-- sequence87 -->
<g id="node10" class="node">
<title>sequence87</title>
<polygon fill="#f3b61f" stroke="#000000" points="726.8437,-396 640.8437,-396 640.8437,-360 726.8437,-360 726.8437,-396"/>
<text text-anchor="middle" x="683.8437" y="-374.3" font-family="Times,serif" font-size="14.00" fill="#000000">Sequence</text>
</g>
<!-- selector78&#45;&gt;sequence87 -->
<g id="edge3" class="edge">
<title>selector78&#45;&gt;sequence87</title>
<path fill="none" stroke="#000000" d="M444.4984,-439.9887C492.9541,-427.439 576.2457,-405.8671 630.6789,-391.7693"/>
<polygon fill="#000000" stroke="#000000" points="631.689,-395.1232 640.4921,-389.2278 629.9339,-388.3468 631.689,-395.1232"/>
</g>
<!-- inverter80 -->
<g id="node3" class="node">
<title>inverter80</title>
<polygon fill="#e26d5a" stroke="#000000" points="70.8437,-324 14.7064,-306 70.8437,-288 126.981,-306 70.8437,-324"/>
<text text-anchor="middle" x="70.8437" y="-302.3" font-family="Times,serif" font-size="14.00" fill="#000000">Invert</text>
</g>
<!-- sequence79&#45;&gt;inverter80 -->
<g id="edge4" class="edge">
<title>sequence79&#45;&gt;inverter80</title>
<path fill="none" stroke="#000000" d="M171.0299,-359.8314C149.5147,-348.271 121.8914,-333.4286 101.1013,-322.2578"/>
<polygon fill="#000000" stroke="#000000" points="102.542,-319.0587 92.0764,-317.4086 99.2287,-325.225 102.542,-319.0587"/>
</g>
<!-- pickupConsumable82 -->
<g id="node5" class="node">
<title>pickupConsumable82</title>
<polygon fill="#a2abb5" stroke="#000000" points="264.8437,-324 144.8437,-324 144.8437,-288 264.8437,-288 264.8437,-324"/>
<text text-anchor="middle" x="204.8437" y="-302.3" font-family="Times,serif" font-size="14.00" fill="#000000">Pick up health</text>
</g>
<!-- sequence79&#45;&gt;pickupConsumable82 -->
<g id="edge5" class="edge">
<title>sequence79&#45;&gt;pickupConsumable82</title>
<path fill="none" stroke="#000000" d="M204.8437,-359.8314C204.8437,-352.131 204.8437,-342.9743 204.8437,-334.4166"/>
<polygon fill="#000000" stroke="#000000" points="208.3438,-334.4132 204.8437,-324.4133 201.3438,-334.4133 208.3438,-334.4132"/>
</g>
<!-- checkHealth81 -->
<g id="node4" class="node">
<title>checkHealth81</title>
<ellipse fill="#7dd181" stroke="#000000" cx="70.8437" cy="-234" rx="70.6878" ry="18"/>
<text text-anchor="middle" x="70.8437" y="-230.3" font-family="Times,serif" font-size="14.00" fill="#000000">Health &gt; 0.5</text>
</g>
<!-- inverter80&#45;&gt;checkHealth81 -->
<g id="edge6" class="edge">
<title>inverter80&#45;&gt;checkHealth81</title>
<path fill="none" stroke="#000000" d="M70.8437,-287.8314C70.8437,-280.131 70.8437,-270.9743 70.8437,-262.4166"/>
<polygon fill="#000000" stroke="#000000" points="74.3438,-262.4132 70.8437,-252.4133 67.3438,-262.4133 74.3438,-262.4132"/>
</g>
<!-- inverter84 -->
<g id="node7" class="node">
<title>inverter84</title>
<polygon fill="#e26d5a" stroke="#000000" points="338.8437,-324 282.7064,-306 338.8437,-288 394.981,-306 338.8437,-324"/>
<text text-anchor="middle" x="338.8437" y="-302.3" font-family="Times,serif" font-size="14.00" fill="#000000">Invert</text>
</g>
<!-- sequence83&#45;&gt;inverter84 -->
<g id="edge7" class="edge">
<title>sequence83&#45;&gt;inverter84</title>
<path fill="none" stroke="#000000" d="M388.9368,-359.8314C379.7929,-350.005 368.4423,-337.8075 358.8591,-327.509"/>
<polygon fill="#000000" stroke="#000000" points="361.3156,-325.0111 351.941,-320.0747 356.1911,-329.7797 361.3156,-325.0111"/>
</g>
<!-- pickupConsumable86 -->
<g id="node9" class="node">
<title>pickupConsumable86</title>
<polygon fill="#7dd181" stroke="#000000" points="532.3437,-324 413.3437,-324 413.3437,-288 532.3437,-288 532.3437,-324"/>
<text text-anchor="middle" x="472.8437" y="-302.3" font-family="Times,serif" font-size="14.00" fill="#000000">Pick up armor</text>
</g>
<!-- sequence83&#45;&gt;pickupConsumable86 -->
<g id="edge8" class="edge">
<title>sequence83&#45;&gt;pickupConsumable86</title>
<path fill="none" stroke="#000000" d="M422.7506,-359.8314C430.625,-351.3694 440.1357,-341.1489 448.745,-331.8971"/>
<polygon fill="#000000" stroke="#000000" points="451.4591,-334.1183 455.7091,-324.4133 446.3346,-329.3497 451.4591,-334.1183"/>
</g>
<!-- checkArmor85 -->
<g id="node8" class="node">
<title>checkArmor85</title>
<ellipse fill="#7dd181" stroke="#000000" cx="338.8437" cy="-234" rx="74.9875" ry="18"/>
<text text-anchor="middle" x="338.8437" y="-230.3" font-family="Times,serif" font-size="14.00" fill="#000000">Armor &gt; 0.25</text>
</g>
<!-- inverter84&#45;&gt;checkArmor85 -->
<g id="edge9" class="edge">
<title>inverter84&#45;&gt;checkArmor85</title>
<path fill="none" stroke="#000000" d="M338.8437,-287.8314C338.8437,-280.131 338.8437,-270.9743 338.8437,-262.4166"/>
<polygon fill="#000000" stroke="#000000" points="342.3438,-262.4132 338.8437,-252.4133 335.3438,-262.4133 342.3438,-262.4132"/>
</g>
<!-- succeeder88 -->
<g id="node11" class="node">
<title>succeeder88</title>
<polygon fill="#7dd181" stroke="#000000" points="627.3437,-324 550.3437,-324 550.3437,-288 627.3437,-288 627.3437,-324"/>
<text text-anchor="middle" x="588.8437" y="-302.3" font-family="Times,serif" font-size="14.00" fill="#000000">Succeed</text>
</g>
<!-- sequence87&#45;&gt;succeeder88 -->
<g id="edge10" class="edge">
<title>sequence87&#45;&gt;succeeder88</title>
<path fill="none" stroke="#000000" d="M659.8712,-359.8314C648.0576,-350.8779 633.6465,-339.9558 620.9002,-330.2955"/>
<polygon fill="#000000" stroke="#000000" points="622.8924,-327.4137 612.8086,-324.1628 618.6642,-332.9925 622.8924,-327.4137"/>
</g>
<!-- succeeder100 -->
<g id="node23" class="node">
<title>succeeder100</title>
<polygon fill="#7dd181" stroke="#000000" points="722.3437,-324 645.3437,-324 645.3437,-288 722.3437,-288 722.3437,-324"/>
<text text-anchor="middle" x="683.8437" y="-302.3" font-family="Times,serif" font-size="14.00" fill="#000000">Succeed</text>
</g>
<!-- sequence87&#45;&gt;succeeder100 -->
<g id="edge11" class="edge">
<title>sequence87&#45;&gt;succeeder100</title>
<path fill="none" stroke="#000000" d="M683.8437,-359.8314C683.8437,-352.131 683.8437,-342.9743 683.8437,-334.4166"/>
<polygon fill="#000000" stroke="#000000" points="687.3438,-334.4132 683.8437,-324.4133 680.3438,-334.4133 687.3438,-334.4132"/>
</g>
<!-- moveToNearest102 -->
<g id="node25" class="node">
<title>moveToNearest102</title>
<polygon fill="#f3b61f" stroke="#000000" points="864.8437,-324 740.8437,-324 740.8437,-288 864.8437,-288 864.8437,-324"/>
<text text-anchor="middle" x="802.8437" y="-302.3" font-family="Times,serif" font-size="14.00" fill="#000000">Move to player</text>
</g>
<!-- sequence87&#45;&gt;moveToNearest102 -->
<g id="edge12" class="edge">
<title>sequence87&#45;&gt;moveToNearest102</title>
<path fill="none" stroke="#000000" d="M713.8724,-359.8314C729.0933,-350.6221 747.7565,-339.3301 764.052,-329.4706"/>
<polygon fill="#000000" stroke="#000000" points="766.0806,-332.3341 772.8246,-324.1628 762.4569,-326.345 766.0806,-332.3341"/>
</g>
<!-- attackNearest103 -->
<g id="node26" class="node">
<title>attackNearest103</title>
<polygon fill="#a2abb5" stroke="#000000" points="996.8437,-324 882.8437,-324 882.8437,-288 996.8437,-288 996.8437,-324"/>
<text text-anchor="middle" x="939.8437" y="-302.3" font-family="Times,serif" font-size="14.00" fill="#000000">Attack player</text>
</g>
<!-- sequence87&#45;&gt;attackNearest103 -->
<g id="edge13" class="edge">
<title>sequence87&#45;&gt;attackNearest103</title>
<path fill="none" stroke="#000000" d="M726.9811,-365.8676C766.8077,-354.6664 826.5836,-337.8544 872.6609,-324.8952"/>
<polygon fill="#000000" stroke="#000000" points="873.8903,-328.1853 882.5691,-322.1085 871.995,-321.4467 873.8903,-328.1853"/>
</g>
<!-- selector89 -->
<g id="node12" class="node">
<title>selector89</title>
<polygon fill="#e26d5a" stroke="#000000" points="613.3437,-252 536.3437,-252 536.3437,-216 613.3437,-216 613.3437,-252"/>
<text text-anchor="middle" x="574.8437" y="-230.3" font-family="Times,serif" font-size="14.00" fill="#000000">Selector</text>
</g>
<!-- succeeder88&#45;&gt;selector89 -->
<g id="edge14" class="edge">
<title>succeeder88&#45;&gt;selector89</title>
<path fill="none" stroke="#000000" d="M585.3109,-287.8314C583.8136,-280.131 582.0332,-270.9743 580.3692,-262.4166"/>
<polygon fill="#000000" stroke="#000000" points="583.7685,-261.5614 578.4241,-252.4133 576.8972,-262.8975 583.7685,-261.5614"/>
</g>
<!-- sequence90 -->
<g id="node13" class="node">
<title>sequence90</title>
<polygon fill="#e26d5a" stroke="#000000" points="475.8437,-180 389.8437,-180 389.8437,-144 475.8437,-144 475.8437,-180"/>
<text text-anchor="middle" x="432.8437" y="-158.3" font-family="Times,serif" font-size="14.00" fill="#000000">Sequence</text>
</g>
<!-- selector89&#45;&gt;sequence90 -->
<g id="edge15" class="edge">
<title>selector89&#45;&gt;sequence90</title>
<path fill="none" stroke="#000000" d="M539.0111,-215.8314C520.428,-206.4089 497.5448,-194.8062 477.7873,-184.7883"/>
<polygon fill="#000000" stroke="#000000" points="479.1667,-181.5635 468.6648,-180.1628 476.001,-187.8069 479.1667,-181.5635"/>
</g>
<!-- sequence95 -->
<g id="node18" class="node">
<title>sequence95</title>
<polygon fill="#e26d5a" stroke="#000000" points="861.8437,-180 775.8437,-180 775.8437,-144 861.8437,-144 861.8437,-180"/>
<text text-anchor="middle" x="818.8437" y="-158.3" font-family="Times,serif" font-size="14.00" fill="#000000">Sequence</text>
</g>
<!-- selector89&#45;&gt;sequence95 -->
<g id="edge16" class="edge">
<title>selector89&#45;&gt;sequence95</title>
<path fill="none" stroke="#000000" d="M613.4645,-218.864C616.289,-217.8633 619.1036,-216.8978 621.8437,-216 670.1532,-200.1705 726.1312,-185.1366 766.0414,-174.9708"/>
<polygon fill="#000000" stroke="#000000" points="766.992,-178.3406 775.8274,-172.4937 765.2742,-171.5547 766.992,-178.3406"/>
</g>
<!-- entityDistance91 -->
<g id="node14" class="node">
<title>entityDistance91</title>
<ellipse fill="#e26d5a" stroke="#000000" cx="163.8437" cy="-90" rx="124.2781" ry="18"/>
<text text-anchor="middle" x="163.8437" y="-86.3" font-family="Times,serif" font-size="14.00" fill="#000000">Distance to player &lt; 5.0</text>
</g>
<!-- sequence90&#45;&gt;entityDistance91 -->
<g id="edge17" class="edge">
<title>sequence90&#45;&gt;entityDistance91</title>
<path fill="none" stroke="#000000" d="M389.6242,-150.432C347.2972,-139.1028 282.1343,-121.6614 232.6732,-108.4228"/>
<polygon fill="#000000" stroke="#000000" points="233.5667,-105.0388 223.0017,-105.8341 231.7567,-111.8007 233.5667,-105.0388"/>
</g>
<!-- inverter92 -->
<g id="node15" class="node">
<title>inverter92</title>
<polygon fill="#a2abb5" stroke="#000000" points="361.8437,-108 305.7064,-90 361.8437,-72 417.981,-90 361.8437,-108"/>
<text text-anchor="middle" x="361.8437" y="-86.3" font-family="Times,serif" font-size="14.00" fill="#000000">Invert</text>
</g>
<!-- sequence90&#45;&gt;inverter92 -->
<g id="edge18" class="edge">
<title>sequence90&#45;&gt;inverter92</title>
<path fill="none" stroke="#000000" d="M414.9274,-143.8314C405.1426,-133.9087 392.9734,-121.5681 382.7559,-111.2067"/>
<polygon fill="#000000" stroke="#000000" points="385.2365,-108.7375 375.7229,-104.0747 380.2522,-113.6525 385.2365,-108.7375"/>
</g>
<!-- pickUpItem94 -->
<g id="node17" class="node">
<title>pickUpItem94</title>
<polygon fill="#a2abb5" stroke="#000000" points="569.3437,-108 436.3437,-108 436.3437,-72 569.3437,-72 569.3437,-108"/>
<text text-anchor="middle" x="502.8437" y="-86.3" font-family="Times,serif" font-size="14.00" fill="#000000">Pick up shotgun</text>
</g>
<!-- sequence90&#45;&gt;pickUpItem94 -->
<g id="edge19" class="edge">
<title>sequence90&#45;&gt;pickUpItem94</title>
<path fill="none" stroke="#000000" d="M450.5077,-143.8314C458.8169,-135.2848 468.8701,-124.9443 477.9355,-115.6198"/>
<polygon fill="#000000" stroke="#000000" points="480.4806,-118.023 484.9419,-108.4133 475.4616,-113.1435 480.4806,-118.023"/>
</g>
<!-- checkWeapon93 -->
<g id="node16" class="node">
<title>checkWeapon93</title>
<ellipse fill="#a2abb5" stroke="#000000" cx="361.8437" cy="-18" rx="74.9875" ry="18"/>
<text text-anchor="middle" x="361.8437" y="-14.3" font-family="Times,serif" font-size="14.00" fill="#000000">Has shotgun?</text>
</g>
<!-- inverter92&#45;&gt;checkWeapon93 -->
<g id="edge20" class="edge">
<title>inverter92&#45;&gt;checkWeapon93</title>
<path fill="none" stroke="#000000" d="M361.8437,-71.8314C361.8437,-64.131 361.8437,-54.9743 361.8437,-46.4166"/>
<polygon fill="#000000" stroke="#000000" points="365.3438,-46.4132 361.8437,-36.4133 358.3438,-46.4133 365.3438,-46.4132"/>
</g>
<!-- entityDistance96 -->
<g id="node19" class="node">
<title>entityDistance96</title>
<ellipse fill="#e26d5a" stroke="#000000" cx="716.8437" cy="-90" rx="129.9769" ry="18"/>
<text text-anchor="middle" x="716.8437" y="-86.3" font-family="Times,serif" font-size="14.00" fill="#000000">Distance to player &lt; 15.0</text>
</g>
<!-- sequence95&#45;&gt;entityDistance96 -->
<g id="edge21" class="edge">
<title>sequence95&#45;&gt;entityDistance96</title>
<path fill="none" stroke="#000000" d="M793.1048,-143.8314C780.1045,-134.6547 764.1744,-123.4099 750.2419,-113.5752"/>
<polygon fill="#000000" stroke="#000000" points="752.0573,-110.5725 741.8692,-107.665 748.0205,-116.2913 752.0573,-110.5725"/>
</g>
<!-- inverter97 -->
<g id="node20" class="node">
<title>inverter97</title>
<polygon fill="#a2abb5" stroke="#000000" points="920.8437,-108 864.7064,-90 920.8437,-72 976.981,-90 920.8437,-108"/>
<text text-anchor="middle" x="920.8437" y="-86.3" font-family="Times,serif" font-size="14.00" fill="#000000">Invert</text>
</g>
<!-- sequence95&#45;&gt;inverter97 -->
<g id="edge22" class="edge">
<title>sequence95&#45;&gt;inverter97</title>
<path fill="none" stroke="#000000" d="M844.5826,-143.8314C859.8763,-133.0358 879.2246,-119.3782 894.6054,-108.5212"/>
<polygon fill="#000000" stroke="#000000" points="896.9909,-111.1214 903.1422,-102.4952 892.9541,-105.4027 896.9909,-111.1214"/>
</g>
<!-- pickUpItem99 -->
<g id="node22" class="node">
<title>pickUpItem99</title>
<polygon fill="#a2abb5" stroke="#000000" points="1098.8437,-108 994.8437,-108 994.8437,-72 1098.8437,-72 1098.8437,-108"/>
<text text-anchor="middle" x="1046.8437" y="-86.3" font-family="Times,serif" font-size="14.00" fill="#000000">Pick up rifle</text>
</g>
<!-- sequence95&#45;&gt;pickUpItem99 -->
<g id="edge23" class="edge">
<title>sequence95&#45;&gt;pickUpItem99</title>
<path fill="none" stroke="#000000" d="M861.9968,-148.3727C896.7491,-137.3983 946.0543,-121.8282 985.0036,-109.5285"/>
<polygon fill="#000000" stroke="#000000" points="986.1859,-112.8256 994.6677,-106.4766 984.0779,-106.1505 986.1859,-112.8256"/>
</g>
<!-- checkWeapon98 -->
<g id="node21" class="node">
<title>checkWeapon98</title>
<ellipse fill="#a2abb5" stroke="#000000" cx="920.8437" cy="-18" rx="55.7903" ry="18"/>
<text text-anchor="middle" x="920.8437" y="-14.3" font-family="Times,serif" font-size="14.00" fill="#000000">Has rifle?</text>
</g>
<!-- inverter97&#45;&gt;checkWeapon98 -->
<g id="edge24" class="edge">
<title>inverter97&#45;&gt;checkWeapon98</title>
<path fill="none" stroke="#000000" d="M920.8437,-71.8314C920.8437,-64.131 920.8437,-54.9743 920.8437,-46.4166"/>
<polygon fill="#000000" stroke="#000000" points="924.3438,-46.4132 920.8437,-36.4133 917.3438,-46.4133 924.3438,-46.4132"/>
</g>
<!-- pickupConsumable101 -->
<g id="node24" class="node">
<title>pickupConsumable101</title>
<polygon fill="#7dd181" stroke="#000000" points="762.3437,-252 631.3437,-252 631.3437,-216 762.3437,-216 762.3437,-252"/>
<text text-anchor="middle" x="696.8437" y="-230.3" font-family="Times,serif" font-size="14.00" fill="#000000">Pick up damage</text>
</g>
<!-- succeeder100&#45;&gt;pickupConsumable101 -->
<g id="edge25" class="edge">
<title>succeeder100&#45;&gt;pickupConsumable101</title>
<path fill="none" stroke="#000000" d="M687.1242,-287.8314C688.5145,-280.131 690.1678,-270.9743 691.7129,-262.4166"/>
<polygon fill="#000000" stroke="#000000" points="695.1865,-262.8761 693.5191,-252.4133 688.2979,-261.6322 695.1865,-262.8761"/>
</g>
</g>
</svg>
